<svg width="200" height="59" viewBox="0 0 200 59" xmlns="http://www.w3.org/2000/svg">
<g style="fill: none; stroke: #fff; stroke-width: 1.5px;">
<path d="M19.0078 28.4609C18.9453 28.5859 18.8125 28.8516 18.6094 29.2578C18.4219 29.6484 18.1719 30.1016 17.8594 30.6172C17.5625 31.1328 17.2109 31.6719 16.8047 32.2344C16.3984 32.7969 15.9453 33.3125 15.4453 33.7812C14.9453 34.25 14.4062 34.6406 13.8281 34.9531C13.25 35.25 12.6406 35.3984 12 35.3984C11.0938 35.3984 10.3281 35.1094 9.70312 34.5312C9.09375 33.9531 8.64844 33.2266 8.36719 32.3516C7.83594 33.2422 7.20312 33.9531 6.46875 34.4844C5.73438 35 5 35.2578 4.26562 35.2578C3.6875 35.2578 3.16406 35.1562 2.69531 34.9531C2.22656 34.7344 1.82812 34.4375 1.5 34.0625C1.17188 33.6719 0.914062 33.2188 0.726562 32.7031C0.554688 32.1875 0.46875 31.625 0.46875 31.0156C0.46875 29.7969 0.671875 28.7266 1.07812 27.8047C1.5 26.8672 2.03125 26.0859 2.67188 25.4609C3.3125 24.8359 4.01562 24.3672 4.78125 24.0547C5.5625 23.7422 6.3125 23.5859 7.03125 23.5859C7.51562 23.5859 7.96094 23.6562 8.36719 23.7969C8.77344 23.9219 9.11719 24.0625 9.39844 24.2188C9.69531 24.375 9.92188 24.5234 10.0781 24.6641C10.2344 24.7891 10.3203 24.8594 10.3359 24.875C10.5078 25.0781 10.5938 25.2891 10.5938 25.5078C10.5938 25.7422 10.5078 25.9531 10.3359 26.1406C10.1641 26.3125 9.96094 26.3984 9.72656 26.3984C9.47656 26.3984 9.26562 26.3125 9.09375 26.1406C9.0625 26.1094 8.99219 26.0547 8.88281 25.9766C8.77344 25.8828 8.625 25.7891 8.4375 25.6953C8.25 25.6016 8.02344 25.5234 7.75781 25.4609C7.50781 25.3828 7.21875 25.3438 6.89062 25.3438C6.40625 25.3438 5.89062 25.4531 5.34375 25.6719C4.79688 25.8906 4.29688 26.2344 3.84375 26.7031C3.39062 27.1562 3.00781 27.7344 2.69531 28.4375C2.39844 29.125 2.25 29.9453 2.25 30.8984C2.25 31.1953 2.28125 31.5 2.34375 31.8125C2.40625 32.1094 2.51562 32.3828 2.67188 32.6328C2.82812 32.8828 3.03906 33.0859 3.30469 33.2422C3.57031 33.3984 3.89844 33.4766 4.28906 33.4766C4.57031 33.4766 4.89062 33.3828 5.25 33.1953C5.625 33.0078 5.97656 32.7188 6.30469 32.3281C6.64844 31.9375 6.95312 31.4453 7.21875 30.8516C7.5 30.2578 7.69531 29.5547 7.80469 28.7422C7.83594 28.5234 7.9375 28.3438 8.10938 28.2031C8.28125 28.0469 8.48438 27.9688 8.71875 27.9688C8.9375 27.9688 9.125 28.0547 9.28125 28.2266C9.45312 28.3984 9.54688 28.5938 9.5625 28.8125C9.57812 29.1094 9.60938 29.5312 9.65625 30.0781C9.70312 30.6094 9.80469 31.1406 9.96094 31.6719C10.1328 32.2031 10.3828 32.6641 10.7109 33.0547C11.0391 33.4453 11.4922 33.6406 12.0703 33.6406C12.4453 33.6406 12.8125 33.5391 13.1719 33.3359C13.5469 33.1328 13.9062 32.8672 14.25 32.5391C14.6094 32.1953 14.9453 31.8125 15.2578 31.3906C15.5859 30.9531 15.8828 30.5156 16.1484 30.0781C16.4141 29.6406 16.6484 29.2188 16.8516 28.8125C17.0547 28.4062 17.2266 28.0547 17.3672 27.7578C17.4453 27.5859 17.5547 27.4531 17.6953 27.3594C17.8516 27.2656 18.0156 27.2188 18.1875 27.2188C18.4531 27.2188 18.6641 27.3203 18.8203 27.5234C18.9922 27.7109 19.0781 27.9141 19.0781 28.1328C19.0781 28.2422 19.0547 28.3516 19.0078 28.4609ZM22.5938 32.8906C22.8438 32.375 23.1328 31.8125 23.4609 31.2031C23.7891 30.5781 24.1406 29.9531 24.5156 29.3281C24.8906 28.6875 25.2812 28.0547 25.6875 27.4297C26.1094 26.8047 26.5469 26.2109 27 25.6484C27.4531 25.1016 27.9062 24.7109 28.3594 24.4766C28.8281 24.2266 29.2656 24.1016 29.6719 24.1016C30.4844 24.1016 31.0859 24.3984 31.4766 24.9922C31.8672 25.5859 32.0625 26.3203 32.0625 27.1953C32.0625 27.3984 32.0469 27.6484 32.0156 27.9453C32 28.2266 31.9766 28.5312 31.9453 28.8594C31.9297 29.1875 31.9062 29.5234 31.875 29.8672C31.8594 30.1953 31.8516 30.5078 31.8516 30.8047C31.8516 31.1797 31.8672 31.5391 31.8984 31.8828C31.9453 32.2266 32.0234 32.5312 32.1328 32.7969C32.2422 33.0469 32.3984 33.25 32.6016 33.4062C32.8047 33.5469 33.0703 33.6172 33.3984 33.6172C33.9922 33.6172 34.5703 33.3906 35.1328 32.9375C35.6953 32.4688 36.2109 31.9219 36.6797 31.2969C37.1641 30.6562 37.5781 30.0078 37.9219 29.3516C38.2812 28.6953 38.5469 28.1641 38.7188 27.7578C38.7969 27.5859 38.9062 27.4531 39.0469 27.3594C39.2031 27.2656 39.3672 27.2188 39.5391 27.2188C39.8047 27.2188 40.0156 27.3203 40.1719 27.5234C40.3438 27.7109 40.4297 27.9141 40.4297 28.1328C40.4297 28.2422 40.4062 28.3516 40.3594 28.4609C40.2969 28.5859 40.1719 28.8438 39.9844 29.2344C39.7969 29.625 39.5469 30.0781 39.2344 30.5938C38.9375 31.0938 38.5859 31.6328 38.1797 32.2109C37.7734 32.7734 37.3203 33.2891 36.8203 33.7578C36.3359 34.2266 35.8047 34.6172 35.2266 34.9297C34.6641 35.2422 34.0703 35.3984 33.4453 35.3984C32.7422 35.3984 32.1719 35.2656 31.7344 35C31.2969 34.7188 30.9531 34.3594 30.7031 33.9219C30.4531 33.4688 30.2812 32.9766 30.1875 32.4453C30.1094 31.8984 30.0703 31.3516 30.0703 30.8047C30.0703 30.5703 30.0781 30.3047 30.0938 30.0078C30.125 29.7109 30.1562 29.3984 30.1875 29.0703C30.2344 28.7422 30.2656 28.4141 30.2812 28.0859C30.3125 27.7578 30.3281 27.4453 30.3281 27.1484C30.3281 26.6484 30.25 26.3125 30.0938 26.1406C29.9375 25.9531 29.7969 25.8594 29.6719 25.8594C29.4219 25.8594 29.1328 26.0078 28.8047 26.3047C28.4922 26.5859 28.1562 26.9609 27.7969 27.4297C27.4531 27.8984 27.0938 28.4297 26.7188 29.0234C26.3594 29.6016 26.0156 30.1797 25.6875 30.7578C25.375 31.3359 25.0781 31.8906 24.7969 32.4219C24.5312 32.9375 24.3203 33.3672 24.1641 33.7109C23.8516 34.3672 23.5391 34.8047 23.2266 35.0234C22.9141 35.2578 22.5938 35.375 22.2656 35.375C21.8125 35.375 21.4453 35.2422 21.1641 34.9766C20.8984 34.6953 20.7656 34.3047 20.7656 33.8047C20.7656 33.6953 20.7812 33.4844 20.8125 33.1719C20.8438 32.8438 20.8828 32.4609 20.9297 32.0234C20.9766 31.5703 21.0234 31.0859 21.0703 30.5703C21.1172 30.0547 21.1641 29.5469 21.2109 29.0469C21.2578 28.5312 21.2969 28.0547 21.3281 27.6172C21.3594 27.1797 21.375 26.8125 21.375 26.5156C21.375 26.125 21.3594 25.75 21.3281 25.3906C21.2969 25.0312 21.2344 24.8125 21.1406 24.7344C21 24.7812 20.75 25.0781 20.3906 25.625C20.0312 26.1562 19.5703 27.1016 19.0078 28.4609C18.9297 28.6328 18.8125 28.7656 18.6562 28.8594C18.5 28.9531 18.3359 29 18.1641 29C17.8984 29 17.6875 28.9141 17.5312 28.7422C17.375 28.5547 17.2969 28.3438 17.2969 28.1094C17.2969 28 17.3203 27.8828 17.3672 27.7578C18.0703 26.0859 18.7266 24.8594 19.3359 24.0781C19.9609 23.2812 20.5781 22.8828 21.1875 22.8828C21.5469 22.8828 21.8516 22.9766 22.1016 23.1641C22.3516 23.3359 22.5469 23.5703 22.6875 23.8672C22.8438 24.1641 22.9531 24.4922 23.0156 24.8516C23.0938 25.2109 23.1328 25.5781 23.1328 25.9531C23.1328 26.2344 23.1094 26.6719 23.0625 27.2656C23.0312 27.8594 22.9844 28.5 22.9219 29.1875C22.8594 29.8594 22.7969 30.5312 22.7344 31.2031C22.6875 31.875 22.6406 32.4375 22.5938 32.8906ZM43.9688 32.8906C44.2188 32.375 44.5078 31.8125 44.8359 31.2031C45.1641 30.5781 45.5156 29.9531 45.8906 29.3281C46.2656 28.6875 46.6562 28.0547 47.0625 27.4297C47.4844 26.8047 47.9219 26.2109 48.375 25.6484C48.8281 25.1016 49.2812 24.7109 49.7344 24.4766C50.2031 24.2266 50.6406 24.1016 51.0469 24.1016C51.8594 24.1016 52.4609 24.3984 52.8516 24.9922C53.2422 25.5859 53.4375 26.3203 53.4375 27.1953C53.4375 27.3984 53.4219 27.6484 53.3906 27.9453C53.375 28.2266 53.3516 28.5312 53.3203 28.8594C53.3047 29.1875 53.2812 29.5234 53.25 29.8672C53.2344 30.1953 53.2266 30.5078 53.2266 30.8047C53.2266 31.1797 53.2422 31.5391 53.2734 31.8828C53.3203 32.2266 53.3984 32.5312 53.5078 32.7969C53.6172 33.0469 53.7734 33.25 53.9766 33.4062C54.1797 33.5469 54.4453 33.6172 54.7734 33.6172C55.3672 33.6172 55.9453 33.3906 56.5078 32.9375C57.0703 32.4688 57.5859 31.9219 58.0547 31.2969C58.5391 30.6562 58.9531 30.0078 59.2969 29.3516C59.6562 28.6953 59.9219 28.1641 60.0938 27.7578C60.1719 27.5859 60.2812 27.4531 60.4219 27.3594C60.5781 27.2656 60.7422 27.2188 60.9141 27.2188C61.1797 27.2188 61.3906 27.3203 61.5469 27.5234C61.7188 27.7109 61.8047 27.9141 61.8047 28.1328C61.8047 28.2422 61.7812 28.3516 61.7344 28.4609C61.6719 28.5859 61.5469 28.8438 61.3594 29.2344C61.1719 29.625 60.9219 30.0781 60.6094 30.5938C60.3125 31.0938 59.9609 31.6328 59.5547 32.2109C59.1484 32.7734 58.6953 33.2891 58.1953 33.7578C57.7109 34.2266 57.1797 34.6172 56.6016 34.9297C56.0391 35.2422 55.4453 35.3984 54.8203 35.3984C54.1172 35.3984 53.5469 35.2656 53.1094 35C52.6719 34.7188 52.3281 34.3594 52.0781 33.9219C51.8281 33.4688 51.6562 32.9766 51.5625 32.4453C51.4844 31.8984 51.4453 31.3516 51.4453 30.8047C51.4453 30.5703 51.4531 30.3047 51.4688 30.0078C51.5 29.7109 51.5312 29.3984 51.5625 29.0703C51.6094 28.7422 51.6406 28.4141 51.6562 28.0859C51.6875 27.7578 51.7031 27.4453 51.7031 27.1484C51.7031 26.6484 51.625 26.3125 51.4688 26.1406C51.3125 25.9531 51.1719 25.8594 51.0469 25.8594C50.7969 25.8594 50.5078 26.0078 50.1797 26.3047C49.8672 26.5859 49.5312 26.9609 49.1719 27.4297C48.8281 27.8984 48.4688 28.4297 48.0938 29.0234C47.7344 29.6016 47.3906 30.1797 47.0625 30.7578C46.75 31.3359 46.4531 31.8906 46.1719 32.4219C45.9062 32.9375 45.6953 33.3672 45.5391 33.7109C45.2266 34.3672 44.9141 34.8047 44.6016 35.0234C44.2891 35.2578 43.9688 35.375 43.6406 35.375C43.1875 35.375 42.8203 35.2422 42.5391 34.9766C42.2734 34.6953 42.1406 34.3047 42.1406 33.8047C42.1406 33.6953 42.1562 33.4844 42.1875 33.1719C42.2188 32.8438 42.2578 32.4609 42.3047 32.0234C42.3516 31.5703 42.3984 31.0859 42.4453 30.5703C42.4922 30.0547 42.5391 29.5469 42.5859 29.0469C42.6328 28.5312 42.6719 28.0547 42.7031 27.6172C42.7344 27.1797 42.75 26.8125 42.75 26.5156C42.75 26.125 42.7344 25.75 42.7031 25.3906C42.6719 25.0312 42.6094 24.8125 42.5156 24.7344C42.375 24.7812 42.125 25.0781 41.7656 25.625C41.4062 26.1562 40.9453 27.1016 40.3828 28.4609C40.3047 28.6328 40.1875 28.7656 40.0312 28.8594C39.875 28.9531 39.7109 29 39.5391 29C39.2734 29 39.0625 28.9141 38.9062 28.7422C38.75 28.5547 38.6719 28.3438 38.6719 28.1094C38.6719 28 38.6953 27.8828 38.7422 27.7578C39.4453 26.0859 40.1016 24.8594 40.7109 24.0781C41.3359 23.2812 41.9531 22.8828 42.5625 22.8828C42.9219 22.8828 43.2266 22.9766 43.4766 23.1641C43.7266 23.3359 43.9219 23.5703 44.0625 23.8672C44.2188 24.1641 44.3281 24.4922 44.3906 24.8516C44.4688 25.2109 44.5078 25.5781 44.5078 25.9531C44.5078 26.2344 44.4844 26.6719 44.4375 27.2656C44.4062 27.8594 44.3594 28.5 44.2969 29.1875C44.2344 29.8594 44.1719 30.5312 44.1094 31.2031C44.0625 31.875 44.0156 32.4375 43.9688 32.8906ZM78.2578 28.4609C78.1953 28.5859 78.0625 28.8516 77.8594 29.2578C77.6719 29.6484 77.4219 30.1016 77.1094 30.6172C76.8125 31.1328 76.4609 31.6719 76.0547 32.2344C75.6484 32.7969 75.1953 33.3125 74.6953 33.7812C74.1953 34.25 73.6562 34.6406 73.0781 34.9531C72.5 35.25 71.8906 35.3984 71.25 35.3984C70.3438 35.3984 69.5781 35.1094 68.9531 34.5312C68.3438 33.9531 67.8984 33.2266 67.6172 32.3516C67.0859 33.2422 66.4531 33.9531 65.7188 34.4844C64.9844 35 64.25 35.2578 63.5156 35.2578C62.9375 35.2578 62.4141 35.1562 61.9453 34.9531C61.4766 34.7344 61.0781 34.4375 60.75 34.0625C60.4219 33.6719 60.1641 33.2188 59.9766 32.7031C59.8047 32.1875 59.7188 31.625 59.7188 31.0156C59.7188 29.7969 59.9219 28.7266 60.3281 27.8047C60.75 26.8672 61.2812 26.0859 61.9219 25.4609C62.5625 24.8359 63.2656 24.3672 64.0312 24.0547C64.8125 23.7422 65.5625 23.5859 66.2812 23.5859C66.7656 23.5859 67.2109 23.6562 67.6172 23.7969C68.0234 23.9219 68.3672 24.0625 68.6484 24.2188C68.9453 24.375 69.1719 24.5234 69.3281 24.6641C69.4844 24.7891 69.5703 24.8594 69.5859 24.875C69.7578 25.0781 69.8438 25.2891 69.8438 25.5078C69.8438 25.7422 69.7578 25.9531 69.5859 26.1406C69.4141 26.3125 69.2109 26.3984 68.9766 26.3984C68.7266 26.3984 68.5156 26.3125 68.3438 26.1406C68.3125 26.1094 68.2422 26.0547 68.1328 25.9766C68.0234 25.8828 67.875 25.7891 67.6875 25.6953C67.5 25.6016 67.2734 25.5234 67.0078 25.4609C66.7578 25.3828 66.4688 25.3438 66.1406 25.3438C65.6562 25.3438 65.1406 25.4531 64.5938 25.6719C64.0469 25.8906 63.5469 26.2344 63.0938 26.7031C62.6406 27.1562 62.2578 27.7344 61.9453 28.4375C61.6484 29.125 61.5 29.9453 61.5 30.8984C61.5 31.1953 61.5312 31.5 61.5938 31.8125C61.6562 32.1094 61.7656 32.3828 61.9219 32.6328C62.0781 32.8828 62.2891 33.0859 62.5547 33.2422C62.8203 33.3984 63.1484 33.4766 63.5391 33.4766C63.8203 33.4766 64.1406 33.3828 64.5 33.1953C64.875 33.0078 65.2266 32.7188 65.5547 32.3281C65.8984 31.9375 66.2031 31.4453 66.4688 30.8516C66.75 30.2578 66.9453 29.5547 67.0547 28.7422C67.0859 28.5234 67.1875 28.3438 67.3594 28.2031C67.5312 28.0469 67.7344 27.9688 67.9688 27.9688C68.1875 27.9688 68.375 28.0547 68.5312 28.2266C68.7031 28.3984 68.7969 28.5938 68.8125 28.8125C68.8281 29.1094 68.8594 29.5312 68.9062 30.0781C68.9531 30.6094 69.0547 31.1406 69.2109 31.6719C69.3828 32.2031 69.6328 32.6641 69.9609 33.0547C70.2891 33.4453 70.7422 33.6406 71.3203 33.6406C71.6953 33.6406 72.0625 33.5391 72.4219 33.3359C72.7969 33.1328 73.1562 32.8672 73.5 32.5391C73.8594 32.1953 74.1953 31.8125 74.5078 31.3906C74.8359 30.9531 75.1328 30.5156 75.3984 30.0781C75.6641 29.6406 75.8984 29.2188 76.1016 28.8125C76.3047 28.4062 76.4766 28.0547 76.6172 27.7578C76.6953 27.5859 76.8047 27.4531 76.9453 27.3594C77.1016 27.2656 77.2656 27.2188 77.4375 27.2188C77.7031 27.2188 77.9141 27.3203 78.0703 27.5234C78.2422 27.7109 78.3281 27.9141 78.3281 28.1328C78.3281 28.2422 78.3047 28.3516 78.2578 28.4609ZM91.2188 16.6016C91.2188 17.1953 91.0078 17.7031 90.5859 18.125C90.1797 18.5312 89.6797 18.7344 89.0859 18.7344C88.4922 18.7344 87.9844 18.5312 87.5625 18.125C87.1562 17.7031 86.9531 17.1953 86.9531 16.6016C86.9531 16.3047 87.0078 16.0312 87.1172 15.7812C87.2266 15.5156 87.375 15.2891 87.5625 15.1016C87.7656 14.8984 87.9922 14.7422 88.2422 14.6328C88.5078 14.5234 88.7891 14.4688 89.0859 14.4688C89.3828 14.4688 89.6562 14.5234 89.9062 14.6328C90.1719 14.7422 90.3984 14.8984 90.5859 15.1016C90.7891 15.2891 90.9453 15.5156 91.0547 15.7812C91.1641 16.0312 91.2188 16.3047 91.2188 16.6016ZM88.9688 35.8203C89.5469 35.1953 90.1406 34.5391 90.75 33.8516C91.3594 33.1484 91.9453 32.4531 92.5078 31.7656C93.0703 31.0625 93.5859 30.375 94.0547 29.7031C94.5234 29.0156 94.8906 28.3672 95.1562 27.7578C95.2969 27.4141 95.5625 27.2422 95.9531 27.2422C96.2188 27.2422 96.4297 27.3359 96.5859 27.5234C96.7578 27.6953 96.8438 27.8906 96.8438 28.1094C96.8438 28.2344 96.8203 28.3516 96.7734 28.4609C96.4141 29.2734 95.9219 30.1172 95.2969 30.9922C94.6719 31.8672 93.9922 32.7422 93.2578 33.6172C92.5391 34.4766 91.7969 35.3125 91.0312 36.125C90.2812 36.9531 89.5938 37.7188 88.9688 38.4219C88.9844 39.6719 89 40.8984 89.0156 42.1016C89.0469 43.3047 89.0625 44.4453 89.0625 45.5234C89.0625 49.8203 88.6406 53.0078 87.7969 55.0859C86.9531 57.1641 85.6953 58.2031 84.0234 58.2031C83.4453 58.2031 82.9141 58.0781 82.4297 57.8281C81.9453 57.5781 81.5312 57.2188 81.1875 56.75C80.8438 56.2812 80.5781 55.7031 80.3906 55.0156C80.1875 54.3281 80.0859 53.5469 80.0859 52.6719C80.0859 51.7031 80.2188 50.6406 80.4844 49.4844C80.7344 48.3438 81.1484 47.1328 81.7266 45.8516C82.2891 44.5703 83.0234 43.2422 83.9297 41.8672C84.8359 40.5078 85.9297 39.125 87.2109 37.7188C87.2109 36.375 87.2188 35.0391 87.2344 33.7109C87.25 32.3672 87.2734 31.0859 87.3047 29.8672C87.3516 28.6328 87.4062 27.4844 87.4688 26.4219C87.5469 25.3438 87.6328 24.3906 87.7266 23.5625C87.7578 23.3281 87.8516 23.1406 88.0078 23C88.1797 22.8594 88.3828 22.7891 88.6172 22.7891C88.8516 22.7891 89.0547 22.875 89.2266 23.0469C89.3984 23.2188 89.4844 23.4297 89.4844 23.6797C89.4844 23.7734 89.4531 24.0781 89.3906 24.5938C89.3438 25.1094 89.2891 25.8672 89.2266 26.8672C89.1641 27.8672 89.1016 29.1094 89.0391 30.5938C88.9922 32.0625 88.9688 33.8047 88.9688 35.8203ZM89.8828 16.6016C89.8828 16.3828 89.8047 16.1953 89.6484 16.0391C89.4922 15.8672 89.3047 15.7812 89.0859 15.7812C88.8672 15.7812 88.6719 15.8672 88.5 16.0391C88.3438 16.1953 88.2656 16.3828 88.2656 16.6016C88.2656 16.8203 88.3438 17.0078 88.5 17.1641C88.6719 17.3203 88.8672 17.3984 89.0859 17.3984C89.3047 17.3984 89.4922 17.3203 89.6484 17.1641C89.8047 17.0078 89.8828 16.8203 89.8828 16.6016ZM87.3047 45.3828C87.3047 44.5859 87.2969 43.7891 87.2812 42.9922C87.2656 42.1953 87.25 41.3281 87.2344 40.3906C86.2656 41.5625 85.4453 42.7188 84.7734 43.8594C84.0859 45 83.5234 46.0938 83.0859 47.1406C82.6484 48.1875 82.3359 49.1797 82.1484 50.1172C81.9453 51.0547 81.8438 51.9062 81.8438 52.6719C81.8438 53.1094 81.875 53.5469 81.9375 53.9844C82 54.4375 82.1172 54.8438 82.2891 55.2031C82.4453 55.5781 82.6641 55.875 82.9453 56.0938C83.2266 56.3281 83.5859 56.4453 84.0234 56.4453C84.1953 56.4453 84.3984 56.4062 84.6328 56.3281C84.8672 56.25 85.1094 56.0781 85.3594 55.8125C85.5938 55.5625 85.8281 55.1953 86.0625 54.7109C86.2969 54.2266 86.5078 53.5703 86.6953 52.7422C86.8828 51.9297 87.0312 50.9219 87.1406 49.7188C87.25 48.5156 87.3047 47.0703 87.3047 45.3828ZM97.9688 32.4219C98.2969 32.875 98.7188 33.2422 99.2344 33.5234C99.75 33.7891 100.383 33.9219 101.133 33.9219C101.898 33.9219 102.594 33.7422 103.219 33.3828C103.844 33.0078 104.414 32.5234 104.93 31.9297C105.445 31.3359 105.906 30.6719 106.312 29.9375C106.719 29.2031 107.086 28.4688 107.414 27.7344C107.492 27.5625 107.602 27.4375 107.742 27.3594C107.883 27.2656 108.039 27.2188 108.211 27.2188C108.477 27.2188 108.688 27.3125 108.844 27.5C109.016 27.6875 109.102 27.8906 109.102 28.1094C109.102 28.1875 109.094 28.2578 109.078 28.3203C109.062 28.3672 109.039 28.4219 109.008 28.4844C107.93 30.8594 106.75 32.6484 105.469 33.8516C104.203 35.0547 102.766 35.6719 101.156 35.7031C100.125 35.7031 99.2344 35.5 98.4844 35.0938C97.7344 34.7031 97.1172 34.1953 96.6328 33.5703C96.1484 32.9297 95.7891 32.2109 95.5547 31.4141C95.3203 30.6172 95.2031 29.8203 95.2031 29.0234C95.2031 28.2266 95.2969 27.4922 95.4844 26.8203C95.6875 26.1484 95.9688 25.5625 96.3281 25.0625C96.7031 24.5625 97.1406 24.1719 97.6406 23.8906C98.1562 23.6094 98.7188 23.4688 99.3281 23.4688C99.6875 23.4688 100.039 23.5469 100.383 23.7031C100.742 23.8438 101.062 24.0547 101.344 24.3359C101.625 24.6016 101.852 24.9297 102.023 25.3203C102.195 25.7109 102.281 26.1562 102.281 26.6562C102.281 27.2969 102.172 27.8984 101.953 28.4609C101.734 29.0234 101.43 29.5469 101.039 30.0312C100.664 30.5156 100.211 30.9609 99.6797 31.3672C99.1484 31.7734 98.5781 32.125 97.9688 32.4219ZM97.2656 30.8984C97.75 30.6953 98.1875 30.4375 98.5781 30.125C98.9844 29.8125 99.3281 29.4688 99.6094 29.0938C99.8906 28.7188 100.109 28.3281 100.266 27.9219C100.422 27.5 100.5 27.0781 100.5 26.6562C100.5 26.1875 100.383 25.8359 100.148 25.6016C99.9141 25.3516 99.6406 25.2266 99.3281 25.2266C98.9062 25.2266 98.5469 25.3438 98.25 25.5781C97.9531 25.8125 97.7109 26.1172 97.5234 26.4922C97.3359 26.8672 97.1953 27.2891 97.1016 27.7578C97.0234 28.2109 96.9844 28.6641 96.9844 29.1172C96.9844 29.3984 97.0078 29.6953 97.0547 30.0078C97.1172 30.3203 97.1875 30.6172 97.2656 30.8984ZM112.641 32.8906C112.891 32.375 113.18 31.8125 113.508 31.2031C113.836 30.5781 114.188 29.9531 114.562 29.3281C114.938 28.6875 115.328 28.0547 115.734 27.4297C116.156 26.8047 116.594 26.2109 117.047 25.6484C117.5 25.1016 117.953 24.7109 118.406 24.4766C118.875 24.2266 119.312 24.1016 119.719 24.1016C120.531 24.1016 121.133 24.3984 121.523 24.9922C121.914 25.5859 122.109 26.3203 122.109 27.1953C122.109 27.3984 122.094 27.6484 122.062 27.9453C122.047 28.2266 122.023 28.5312 121.992 28.8594C121.977 29.1875 121.953 29.5234 121.922 29.8672C121.906 30.1953 121.898 30.5078 121.898 30.8047C121.898 31.1797 121.914 31.5391 121.945 31.8828C121.992 32.2266 122.07 32.5312 122.18 32.7969C122.289 33.0469 122.445 33.25 122.648 33.4062C122.852 33.5469 123.117 33.6172 123.445 33.6172C124.039 33.6172 124.617 33.3906 125.18 32.9375C125.742 32.4688 126.258 31.9219 126.727 31.2969C127.211 30.6562 127.625 30.0078 127.969 29.3516C128.328 28.6953 128.594 28.1641 128.766 27.7578C128.844 27.5859 128.953 27.4531 129.094 27.3594C129.25 27.2656 129.414 27.2188 129.586 27.2188C129.852 27.2188 130.062 27.3203 130.219 27.5234C130.391 27.7109 130.477 27.9141 130.477 28.1328C130.477 28.2422 130.453 28.3516 130.406 28.4609C130.344 28.5859 130.219 28.8438 130.031 29.2344C129.844 29.625 129.594 30.0781 129.281 30.5938C128.984 31.0938 128.633 31.6328 128.227 32.2109C127.82 32.7734 127.367 33.2891 126.867 33.7578C126.383 34.2266 125.852 34.6172 125.273 34.9297C124.711 35.2422 124.117 35.3984 123.492 35.3984C122.789 35.3984 122.219 35.2656 121.781 35C121.344 34.7188 121 34.3594 120.75 33.9219C120.5 33.4688 120.328 32.9766 120.234 32.4453C120.156 31.8984 120.117 31.3516 120.117 30.8047C120.117 30.5703 120.125 30.3047 120.141 30.0078C120.172 29.7109 120.203 29.3984 120.234 29.0703C120.281 28.7422 120.312 28.4141 120.328 28.0859C120.359 27.7578 120.375 27.4453 120.375 27.1484C120.375 26.6484 120.297 26.3125 120.141 26.1406C119.984 25.9531 119.844 25.8594 119.719 25.8594C119.469 25.8594 119.18 26.0078 118.852 26.3047C118.539 26.5859 118.203 26.9609 117.844 27.4297C117.5 27.8984 117.141 28.4297 116.766 29.0234C116.406 29.6016 116.062 30.1797 115.734 30.7578C115.422 31.3359 115.125 31.8906 114.844 32.4219C114.578 32.9375 114.367 33.3672 114.211 33.7109C113.898 34.3672 113.586 34.8047 113.273 35.0234C112.961 35.2578 112.641 35.375 112.312 35.375C111.859 35.375 111.492 35.2422 111.211 34.9766C110.945 34.6953 110.812 34.3047 110.812 33.8047C110.812 33.6953 110.828 33.4844 110.859 33.1719C110.891 32.8438 110.93 32.4609 110.977 32.0234C111.023 31.5703 111.07 31.0859 111.117 30.5703C111.164 30.0547 111.211 29.5469 111.258 29.0469C111.305 28.5312 111.344 28.0547 111.375 27.6172C111.406 27.1797 111.422 26.8125 111.422 26.5156C111.422 26.125 111.406 25.75 111.375 25.3906C111.344 25.0312 111.281 24.8125 111.188 24.7344C111.047 24.7812 110.797 25.0781 110.438 25.625C110.078 26.1562 109.617 27.1016 109.055 28.4609C108.977 28.6328 108.859 28.7656 108.703 28.8594C108.547 28.9531 108.383 29 108.211 29C107.945 29 107.734 28.9141 107.578 28.7422C107.422 28.5547 107.344 28.3438 107.344 28.1094C107.344 28 107.367 27.8828 107.414 27.7578C108.117 26.0859 108.773 24.8594 109.383 24.0781C110.008 23.2812 110.625 22.8828 111.234 22.8828C111.594 22.8828 111.898 22.9766 112.148 23.1641C112.398 23.3359 112.594 23.5703 112.734 23.8672C112.891 24.1641 113 24.4922 113.062 24.8516C113.141 25.2109 113.18 25.5781 113.18 25.9531C113.18 26.2344 113.156 26.6719 113.109 27.2656C113.078 27.8594 113.031 28.5 112.969 29.1875C112.906 29.8594 112.844 30.5312 112.781 31.2031C112.734 31.875 112.688 32.4375 112.641 32.8906ZM134.016 32.8906C134.266 32.375 134.555 31.8125 134.883 31.2031C135.211 30.5781 135.562 29.9531 135.938 29.3281C136.312 28.6875 136.703 28.0547 137.109 27.4297C137.531 26.8047 137.969 26.2109 138.422 25.6484C138.875 25.1016 139.328 24.7109 139.781 24.4766C140.25 24.2266 140.688 24.1016 141.094 24.1016C141.906 24.1016 142.508 24.3984 142.898 24.9922C143.289 25.5859 143.484 26.3203 143.484 27.1953C143.484 27.3984 143.469 27.6484 143.438 27.9453C143.422 28.2266 143.398 28.5312 143.367 28.8594C143.352 29.1875 143.328 29.5234 143.297 29.8672C143.281 30.1953 143.273 30.5078 143.273 30.8047C143.273 31.1797 143.289 31.5391 143.32 31.8828C143.367 32.2266 143.445 32.5312 143.555 32.7969C143.664 33.0469 143.82 33.25 144.023 33.4062C144.227 33.5469 144.492 33.6172 144.82 33.6172C145.414 33.6172 145.992 33.3906 146.555 32.9375C147.117 32.4688 147.633 31.9219 148.102 31.2969C148.586 30.6562 149 30.0078 149.344 29.3516C149.703 28.6953 149.969 28.1641 150.141 27.7578C150.219 27.5859 150.328 27.4531 150.469 27.3594C150.625 27.2656 150.789 27.2188 150.961 27.2188C151.227 27.2188 151.438 27.3203 151.594 27.5234C151.766 27.7109 151.852 27.9141 151.852 28.1328C151.852 28.2422 151.828 28.3516 151.781 28.4609C151.719 28.5859 151.594 28.8438 151.406 29.2344C151.219 29.625 150.969 30.0781 150.656 30.5938C150.359 31.0938 150.008 31.6328 149.602 32.2109C149.195 32.7734 148.742 33.2891 148.242 33.7578C147.758 34.2266 147.227 34.6172 146.648 34.9297C146.086 35.2422 145.492 35.3984 144.867 35.3984C144.164 35.3984 143.594 35.2656 143.156 35C142.719 34.7188 142.375 34.3594 142.125 33.9219C141.875 33.4688 141.703 32.9766 141.609 32.4453C141.531 31.8984 141.492 31.3516 141.492 30.8047C141.492 30.5703 141.5 30.3047 141.516 30.0078C141.547 29.7109 141.578 29.3984 141.609 29.0703C141.656 28.7422 141.688 28.4141 141.703 28.0859C141.734 27.7578 141.75 27.4453 141.75 27.1484C141.75 26.6484 141.672 26.3125 141.516 26.1406C141.359 25.9531 141.219 25.8594 141.094 25.8594C140.844 25.8594 140.555 26.0078 140.227 26.3047C139.914 26.5859 139.578 26.9609 139.219 27.4297C138.875 27.8984 138.516 28.4297 138.141 29.0234C137.781 29.6016 137.438 30.1797 137.109 30.7578C136.797 31.3359 136.5 31.8906 136.219 32.4219C135.953 32.9375 135.742 33.3672 135.586 33.7109C135.273 34.3672 134.961 34.8047 134.648 35.0234C134.336 35.2578 134.016 35.375 133.688 35.375C133.234 35.375 132.867 35.2422 132.586 34.9766C132.32 34.6953 132.188 34.3047 132.188 33.8047C132.188 33.6953 132.203 33.4844 132.234 33.1719C132.266 32.8438 132.305 32.4609 132.352 32.0234C132.398 31.5703 132.445 31.0859 132.492 30.5703C132.539 30.0547 132.586 29.5469 132.633 29.0469C132.68 28.5312 132.719 28.0547 132.75 27.6172C132.781 27.1797 132.797 26.8125 132.797 26.5156C132.797 26.125 132.781 25.75 132.75 25.3906C132.719 25.0312 132.656 24.8125 132.562 24.7344C132.422 24.7812 132.172 25.0781 131.812 25.625C131.453 26.1562 130.992 27.1016 130.43 28.4609C130.352 28.6328 130.234 28.7656 130.078 28.8594C129.922 28.9531 129.758 29 129.586 29C129.32 29 129.109 28.9141 128.953 28.7422C128.797 28.5547 128.719 28.3438 128.719 28.1094C128.719 28 128.742 27.8828 128.789 27.7578C129.492 26.0859 130.148 24.8594 130.758 24.0781C131.383 23.2812 132 22.8828 132.609 22.8828C132.969 22.8828 133.273 22.9766 133.523 23.1641C133.773 23.3359 133.969 23.5703 134.109 23.8672C134.266 24.1641 134.375 24.4922 134.438 24.8516C134.516 25.2109 134.555 25.5781 134.555 25.9531C134.555 26.2344 134.531 26.6719 134.484 27.2656C134.453 27.8594 134.406 28.5 134.344 29.1875C134.281 29.8594 134.219 30.5312 134.156 31.2031C134.109 31.875 134.062 32.4375 134.016 32.8906ZM154.008 16.6016C154.008 17.1953 153.797 17.7031 153.375 18.125C152.969 18.5312 152.469 18.7344 151.875 18.7344C151.281 18.7344 150.773 18.5312 150.352 18.125C149.945 17.7031 149.742 17.1953 149.742 16.6016C149.742 16.3047 149.797 16.0312 149.906 15.7812C150.016 15.5156 150.164 15.2891 150.352 15.1016C150.555 14.8984 150.781 14.7422 151.031 14.6328C151.297 14.5234 151.578 14.4688 151.875 14.4688C152.172 14.4688 152.445 14.5234 152.695 14.6328C152.961 14.7422 153.188 14.8984 153.375 15.1016C153.578 15.2891 153.734 15.5156 153.844 15.7812C153.953 16.0312 154.008 16.3047 154.008 16.6016ZM150.211 30.3359C150.211 28.0859 150.352 25.8438 150.633 23.6094C150.664 23.3906 150.758 23.2031 150.914 23.0469C151.086 22.875 151.305 22.7891 151.57 22.7891C151.805 22.7891 152 22.8828 152.156 23.0703C152.312 23.2422 152.391 23.4453 152.391 23.6797C152.391 23.7734 152.367 24.0547 152.32 24.5234C152.289 24.9922 152.242 25.5547 152.18 26.2109C152.133 26.8516 152.086 27.5391 152.039 28.2734C152.008 28.9922 151.992 29.6562 151.992 30.2656C151.992 31.0938 152.07 31.7656 152.227 32.2812C152.398 32.7812 152.609 33.1719 152.859 33.4531C153.125 33.7344 153.398 33.9219 153.68 34.0156C153.977 34.1094 154.258 34.1562 154.523 34.1562C154.961 34.1562 155.414 34 155.883 33.6875C156.352 33.375 156.828 32.9375 157.312 32.375C157.812 31.8125 158.312 31.1406 158.812 30.3594C159.312 29.5625 159.805 28.6797 160.289 27.7109C160.367 27.5547 160.477 27.4375 160.617 27.3594C160.758 27.2656 160.914 27.2188 161.086 27.2188C161.336 27.2188 161.539 27.3125 161.695 27.5C161.867 27.6875 161.953 27.8906 161.953 28.1094C161.953 28.2656 161.922 28.3984 161.859 28.5078C161.672 28.8672 161.438 29.3047 161.156 29.8203C160.875 30.3359 160.555 30.8672 160.195 31.4141C159.836 31.9609 159.438 32.5078 159 33.0547C158.578 33.5859 158.125 34.0703 157.641 34.5078C157.156 34.9297 156.648 35.2734 156.117 35.5391C155.586 35.8047 155.047 35.9375 154.5 35.9375C153.797 35.9375 153.18 35.7891 152.648 35.4922C152.117 35.1953 151.664 34.7969 151.289 34.2969C150.93 33.7969 150.656 33.2109 150.469 32.5391C150.297 31.8516 150.211 31.1172 150.211 30.3359ZM152.695 16.6016C152.695 16.3828 152.609 16.1953 152.438 16.0391C152.281 15.8672 152.094 15.7812 151.875 15.7812C151.656 15.7812 151.469 15.8672 151.312 16.0391C151.156 16.1953 151.078 16.3828 151.078 16.6016C151.078 16.8203 151.156 17.0078 151.312 17.1641C151.469 17.3203 151.656 17.3984 151.875 17.3984C152.094 17.3984 152.281 17.3203 152.438 17.1641C152.609 17.0078 152.695 16.8203 152.695 16.6016ZM162.094 36.1484C163.25 35.6328 164.297 35.0391 165.234 34.3672C166.188 33.6953 167.031 32.9922 167.766 32.2578C168.516 31.5078 169.148 30.75 169.664 29.9844C170.195 29.2031 170.617 28.4609 170.93 27.7578C171.07 27.4141 171.336 27.2422 171.727 27.2422C171.992 27.2422 172.203 27.3359 172.359 27.5234C172.531 27.6953 172.617 27.8906 172.617 28.1094C172.617 28.2344 172.594 28.3516 172.547 28.4609C172.203 29.2266 171.766 30.0234 171.234 30.8516C170.703 31.6641 170.055 32.4688 169.289 33.2656C168.539 34.0469 167.656 34.8047 166.641 35.5391C165.625 36.2734 164.461 36.9453 163.148 37.5547C163.992 38.4297 164.727 39.3984 165.352 40.4609C165.977 41.5391 166.492 42.6562 166.898 43.8125C167.32 44.9688 167.633 46.1328 167.836 47.3047C168.055 48.4922 168.164 49.625 168.164 50.7031C168.164 51.6875 168.07 52.6094 167.883 53.4688C167.711 54.3438 167.445 55.1016 167.086 55.7422C166.742 56.3828 166.32 56.8828 165.82 57.2422C165.32 57.6172 164.75 57.8047 164.109 57.8047C163.172 57.8047 162.445 57.4531 161.93 56.75C161.414 56.0625 161.031 55.1016 160.781 53.8672C160.547 52.6484 160.406 51.2031 160.359 49.5312C160.328 47.875 160.312 46.0703 160.312 44.1172C160.312 43.1484 160.312 42.0156 160.312 40.7188C160.312 39.4375 160.312 38.0547 160.312 36.5703C160.328 35.1016 160.336 33.5625 160.336 31.9531C160.352 30.3281 160.367 28.7031 160.383 27.0781C160.398 25.4531 160.414 23.8594 160.43 22.2969C160.445 20.7188 160.469 19.2266 160.5 17.8203C160.547 15.1328 160.641 12.7344 160.781 10.625C160.922 8.51562 161.148 6.73438 161.461 5.28125C161.773 3.82812 162.195 2.72656 162.727 1.97656C163.273 1.21094 163.961 0.828125 164.789 0.828125C165.445 0.828125 166 1.01562 166.453 1.39062C166.906 1.75 167.273 2.24219 167.555 2.86719C167.836 3.47656 168.039 4.19531 168.164 5.02344C168.289 5.85156 168.352 6.71875 168.352 7.625C168.352 9.53125 168.188 11.375 167.859 13.1562C167.531 14.9375 167.086 16.6641 166.523 18.3359C165.961 20.0078 165.297 21.6406 164.531 23.2344C163.781 24.8281 162.977 26.3984 162.117 27.9453C162.117 28.5859 162.117 29.2812 162.117 30.0312C162.117 30.7656 162.117 31.5078 162.117 32.2578C162.117 32.9922 162.109 33.7031 162.094 34.3906C162.094 35.0625 162.094 35.6484 162.094 36.1484ZM162.164 24.3359C162.805 23.1328 163.391 21.8672 163.922 20.5391C164.469 19.1953 164.938 17.8125 165.328 16.3906C165.719 14.9688 166.023 13.5156 166.242 12.0312C166.461 10.5469 166.57 9.05469 166.57 7.55469C166.57 6.80469 166.531 6.125 166.453 5.51562C166.391 4.90625 166.281 4.39062 166.125 3.96875C165.984 3.53125 165.797 3.19531 165.562 2.96094C165.344 2.71094 165.086 2.58594 164.789 2.58594C164.477 2.58594 164.203 2.77344 163.969 3.14844C163.734 3.52344 163.531 4.02344 163.359 4.64844C163.188 5.27344 163.039 5.99219 162.914 6.80469C162.805 7.61719 162.711 8.46875 162.633 9.35938C162.555 10.2344 162.492 11.1172 162.445 12.0078C162.398 12.8828 162.359 13.7109 162.328 14.4922C162.312 15.2578 162.297 15.9375 162.281 16.5312C162.281 17.125 162.281 17.5703 162.281 17.8672C162.266 18.4922 162.25 19.0469 162.234 19.5312C162.234 20.0156 162.227 20.4922 162.211 20.9609C162.195 21.4297 162.18 21.9297 162.164 22.4609C162.164 22.9922 162.164 23.6172 162.164 24.3359ZM162.094 39.0312C162.094 40.0156 162.086 40.9297 162.07 41.7734C162.07 42.6328 162.07 43.4141 162.07 44.1172C162.07 45.5703 162.078 47.0078 162.094 48.4297C162.109 49.8516 162.18 51.125 162.305 52.25C162.445 53.3906 162.648 54.3047 162.914 54.9922C163.195 55.6953 163.594 56.0469 164.109 56.0469C164.578 56.0469 164.961 55.8359 165.258 55.4141C165.555 54.9922 165.781 54.4922 165.938 53.9141C166.109 53.3359 166.227 52.7422 166.289 52.1328C166.352 51.5391 166.383 51.0547 166.383 50.6797C166.383 49.7266 166.289 48.7266 166.102 47.6797C165.93 46.6328 165.656 45.5938 165.281 44.5625C164.922 43.5469 164.477 42.5625 163.945 41.6094C163.414 40.6562 162.797 39.7969 162.094 39.0312ZM173.766 32.4219C174.094 32.875 174.516 33.2422 175.031 33.5234C175.547 33.7891 176.18 33.9219 176.93 33.9219C177.695 33.9219 178.391 33.7422 179.016 33.3828C179.641 33.0078 180.211 32.5234 180.727 31.9297C181.242 31.3359 181.703 30.6719 182.109 29.9375C182.516 29.2031 182.883 28.4688 183.211 27.7344C183.289 27.5625 183.398 27.4375 183.539 27.3594C183.68 27.2656 183.836 27.2188 184.008 27.2188C184.273 27.2188 184.484 27.3125 184.641 27.5C184.812 27.6875 184.898 27.8906 184.898 28.1094C184.898 28.1875 184.891 28.2578 184.875 28.3203C184.859 28.3672 184.836 28.4219 184.805 28.4844C183.727 30.8594 182.547 32.6484 181.266 33.8516C180 35.0547 178.562 35.6719 176.953 35.7031C175.922 35.7031 175.031 35.5 174.281 35.0938C173.531 34.7031 172.914 34.1953 172.43 33.5703C171.945 32.9297 171.586 32.2109 171.352 31.4141C171.117 30.6172 171 29.8203 171 29.0234C171 28.2266 171.094 27.4922 171.281 26.8203C171.484 26.1484 171.766 25.5625 172.125 25.0625C172.5 24.5625 172.938 24.1719 173.438 23.8906C173.953 23.6094 174.516 23.4688 175.125 23.4688C175.484 23.4688 175.836 23.5469 176.18 23.7031C176.539 23.8438 176.859 24.0547 177.141 24.3359C177.422 24.6016 177.648 24.9297 177.82 25.3203C177.992 25.7109 178.078 26.1562 178.078 26.6562C178.078 27.2969 177.969 27.8984 177.75 28.4609C177.531 29.0234 177.227 29.5469 176.836 30.0312C176.461 30.5156 176.008 30.9609 175.477 31.3672C174.945 31.7734 174.375 32.125 173.766 32.4219ZM173.062 30.8984C173.547 30.6953 173.984 30.4375 174.375 30.125C174.781 29.8125 175.125 29.4688 175.406 29.0938C175.688 28.7188 175.906 28.3281 176.062 27.9219C176.219 27.5 176.297 27.0781 176.297 26.6562C176.297 26.1875 176.18 25.8359 175.945 25.6016C175.711 25.3516 175.438 25.2266 175.125 25.2266C174.703 25.2266 174.344 25.3438 174.047 25.5781C173.75 25.8125 173.508 26.1172 173.32 26.4922C173.133 26.8672 172.992 27.2891 172.898 27.7578C172.82 28.2109 172.781 28.6641 172.781 29.1172C172.781 29.3984 172.805 29.6953 172.852 30.0078C172.914 30.3203 172.984 30.6172 173.062 30.8984ZM185.695 25.3672C185.633 25.7891 185.555 26.1875 185.461 26.5625C185.367 26.9219 185.273 27.2422 185.18 27.5234C185.102 27.7891 185.031 28.0078 184.969 28.1797C184.906 28.3516 184.867 28.4453 184.852 28.4609C184.695 28.8203 184.422 29 184.031 29C183.812 29 183.609 28.9219 183.422 28.7656C183.234 28.5938 183.141 28.3828 183.141 28.1328C183.141 28.0391 183.156 27.9688 183.188 27.9219C183.219 27.875 183.266 27.7812 183.328 27.6406C183.391 27.5 183.469 27.2656 183.562 26.9375C183.656 26.6094 183.773 26.1016 183.914 25.4141C183.648 25.4141 183.375 25.4062 183.094 25.3906C182.812 25.375 182.555 25.3203 182.32 25.2266C182.07 25.1328 181.867 24.9844 181.711 24.7812C181.555 24.5781 181.477 24.2969 181.477 23.9375C181.477 23.6719 181.555 23.3125 181.711 22.8594C181.852 22.4062 182.047 21.9609 182.297 21.5234C182.547 21.0859 182.828 20.7109 183.141 20.3984C183.453 20.0703 183.766 19.9062 184.078 19.9062C184.438 19.9062 184.727 20.0391 184.945 20.3047C185.18 20.5703 185.359 20.8984 185.484 21.2891C185.609 21.6641 185.695 22.0625 185.742 22.4844C185.805 22.9062 185.836 23.2734 185.836 23.5859C186.102 23.5859 186.359 23.5859 186.609 23.5859C186.875 23.5703 187.125 23.5625 187.359 23.5625C188.25 23.5625 188.93 23.7578 189.398 24.1484C189.867 24.5391 190.102 25.1797 190.102 26.0703C190.102 26.4297 190.078 26.8047 190.031 27.1953C189.984 27.5859 189.93 27.9922 189.867 28.4141C189.805 28.8203 189.75 29.2266 189.703 29.6328C189.656 30.0391 189.633 30.4375 189.633 30.8281C189.633 31.3906 189.711 31.8594 189.867 32.2344C190.023 32.5938 190.219 32.8828 190.453 33.1016C190.688 33.3203 190.938 33.4766 191.203 33.5703C191.469 33.6484 191.711 33.6875 191.93 33.6875C192.602 33.6875 193.234 33.4688 193.828 33.0312C194.422 32.5938 194.969 32.0703 195.469 31.4609C195.969 30.8359 196.414 30.1797 196.805 29.4922C197.211 28.8047 197.547 28.2031 197.812 27.6875C197.891 27.5469 198 27.4375 198.141 27.3594C198.281 27.2812 198.43 27.2422 198.586 27.2422C198.867 27.2422 199.086 27.3359 199.242 27.5234C199.398 27.6953 199.477 27.8906 199.477 28.1094C199.477 28.2656 199.445 28.4062 199.383 28.5312C199.023 29.1719 198.602 29.8984 198.117 30.7109C197.648 31.5078 197.109 32.2578 196.5 32.9609C195.891 33.6641 195.203 34.2578 194.438 34.7422C193.688 35.2266 192.859 35.4688 191.953 35.4688C191.391 35.4688 190.859 35.3594 190.359 35.1406C189.859 34.9375 189.422 34.6406 189.047 34.25C188.688 33.8438 188.398 33.3516 188.18 32.7734C187.961 32.1797 187.852 31.5156 187.852 30.7812C187.852 30 187.93 29.2266 188.086 28.4609C188.242 27.6797 188.32 26.9375 188.32 26.2344C188.32 25.9375 188.25 25.7188 188.109 25.5781C187.984 25.4219 187.695 25.3438 187.242 25.3438C187.023 25.3438 186.781 25.3438 186.516 25.3438C186.266 25.3438 185.992 25.3516 185.695 25.3672ZM184.125 23.6328C184.125 23.5234 184.117 23.3828 184.102 23.2109C184.102 23.0234 184.086 22.8438 184.055 22.6719C184.039 22.5 184.008 22.3516 183.961 22.2266C183.93 22.1016 183.891 22.0391 183.844 22.0391C183.797 22.0391 183.734 22.1016 183.656 22.2266C183.594 22.3359 183.523 22.4766 183.445 22.6484C183.367 22.8047 183.297 22.9766 183.234 23.1641C183.172 23.3516 183.125 23.5078 183.094 23.6328H184.125Z"/>
</g>
</svg>
